<svg xmlns="http://www.w3.org/2000/svg" width="1200" height="630" viewBox="0 0 1200 630"><rect width="1200" height="630" fill="#040404"/><g><g transform="translate(80, 70) scale(0.45) translate(-1180, -900)"><path fill="#D9D9D9" d="M1581.5 987.512L1716.5 910V1386L1581.5 1461.5V987.512Z"/><path fill="#D9D9D9" d="M1191 1257.82L1321 1188V1612L1191 1682V1257.82Z"/><path fill="#D4D4D3" d="M1714.06 1446.78H1716.89V1941.08L1682.95 1925.05L1640.53 1901L1595.28 1874.28V1649.84L1564.17 1665.88L1490.64 1705.95L1439.73 1735.34L1298.33 1812L1408.62 1858.25V1978.48L1329.44 1933.06L1284.19 1909.02L1241.77 1884.97L1193.69 1858.25L1190.86 1855.58V1740.69L1216.31 1724.66L1298.33 1679.23L1388.83 1628.47L1541.55 1542.97L1680.12 1465.48L1714.06 1446.78Z"/><rect width="117" height="174" x="1298" y="1812" fill="#040404"/></g></g><text x="370" y="280" fill="#FFF" font-family="Roboto, system-ui, sans-serif" font-size="92" font-weight="800" letter-spacing="-2.5">exfield</text><text x="380" y="350" fill="#C8F031" font-family="Roboto, system-ui, sans-serif" font-size="32" font-weight="500">Smart Digital Systems.</text><text x="380" y="400" fill="rgba(255,255,255,0.7)" font-family="Roboto, system-ui, sans-serif" font-size="22" font-weight="400">Built by one expert, for your entire business.</text><text x="380" y="450" fill="rgba(255,255,255,0.55)" font-family="Roboto, system-ui, sans-serif" font-size="20" font-weight="400">From Adelaide to the world.</text></svg>