<svg xmlns="http://www.w3.org/2000/svg" viewBox="0 0 320 80" width="320" height="80">
  <!-- Mark (scaled-down from Frame 1 viewBox; height 80 keeps aspect ratio) -->
  <g fill="#0F1014" transform="translate(8, 4) scale(0.066)">
    <g transform="translate(-1180, -900)">
      <path d="M1581.5 987.512L1716.5 910V1386L1581.5 1461.5V987.512Z"/>
      <path d="M1191 1257.82L1321 1188V1612L1191 1682V1257.82Z"/>
      <path d="M1714.06 1446.78H1716.89V1941.08L1682.95 1925.05L1640.53 1901L1595.28 1874.28V1649.84L1564.17 1665.88L1490.64 1705.95L1439.73 1735.34L1298.33 1812L1408.62 1858.25V1978.48L1329.44 1933.06L1284.19 1909.02L1241.77 1884.97L1193.69 1858.25L1190.86 1855.58V1740.69L1216.31 1724.66L1298.33 1679.23L1388.83 1628.47L1541.55 1542.97L1680.12 1465.48L1714.06 1446.78Z"/>
    </g>
  </g>

  <!-- Wordmark — picks up where the mark's "H" ends. -->
  <text x="66" y="52" font-family="Roboto, system-ui, -apple-system, Segoe UI, sans-serif"
        font-weight="700" font-size="34" fill="#0F1014" letter-spacing="-0.5">exfield</text>
</svg>
