<?xml version="1.0" encoding="UTF-8"?>
<svg version="1.1" viewBox="0 0 1024 1024" width="1024" height="1024" xmlns="http://www.w3.org/2000/svg">
<path transform="translate(0)" d="m0 0h1024v1024h-1024z" fill="#111110"/>
<path transform="translate(706,284)" d="m0 0h3v49l-20 12-29 17-27 16-58 34-8 5-1 35 29-17 25-15 29-17 28-17 26-15 3-2h3v49l-10 7-21 12-27 16-26 15-25 15-26 15-6 4h-2v142l-21 12-15 9-17 10-5-2-23-13-13-8-29-17-20-12-1-1v-49l4 1 23 13 15 9 29 17 18 11 5-2 6-4 1-226 16-9 49-29 29-17 20-12 22-13 29-17z" fill="#D4D4D3"/>
<path transform="translate(500,406)" d="m0 0h1v185l-12-6-15-9-16-10v-84l-11 6-26 15-18 11-1 96-10-5-28-17-16-9-15-9-17-10-1-1v-43l9-6 29-17 32-19 54-32 49-29z" fill="#D4D4D3"/>
<path transform="translate(511,217)" d="m0 0 5 2 26 15 27 16 26 15 25 15 24 14v4l-26 15-13 8-5-2-26-15-28-17-18-10-15-9-6 2-5 2-1 110-13 8-22 13-8 4v-159l16-9 22-13z" fill="#D4D4D3"/>
<path transform="translate(414,274)" d="m0 0h1v50l-54 32-1 1-1 109-16 10-25 15h-3v-158l10-7 21-12 22-13 29-17z" fill="#D4D4D3"/>
<path transform="translate(706,444)" d="m0 0h3v115l-20 12-29 17-25 15-46 27h-2v-49l20-12 51-30 5-3h2v-67l5-4 26-15z" fill="#D4D4D3"/>
<path transform="translate(772,715)" d="m0 0h16v91h-14l-2-7-5 4-7 3-13 1-11-3-8-6-5-6-4-9-1-6v-8l3-12 7-10 9-6 7-2h14l10 4 3 2z" fill="#D4D4D3"/>
<path transform="translate(236,719)" d="m0 0h15l1 1v34h43v-35h16v86l-1 1h-15v-37h-43v36l-1 1h-15z" fill="#D4D4D3"/>
<path transform="translate(357,739)" d="m0 0h16l11 4 7 6 5 8 2 7v14h-51l4 8 7 5 3 1h14l8-4 3-2 8 8-1 4-9 6-6 2-14 1-10-2-10-5-5-5-4-5-4-11v-13l3-10 7-9 7-5z" fill="#D4D4D3"/>
<path transform="translate(613,739)" d="m0 0h17l10 4 9 8 4 8 2 11v7l-1 1h-50l3 7 4 4 7 3h13l12-6 7 8-1 4-9 6-6 2-14 1-10-2-10-5-7-7-5-11-1-6v-8l4-13 9-10 10-5z" fill="#D4D4D3"/>
<path transform="translate(409,740)" d="m0 0h18l13 18h3l14-18h17l-4 7-14 18-4 6 2 4 14 19 8 10v2h-18l-16-21-2-1-2 5-13 17h-17l2-5 10-13 9-12 2-5-14-19-8-10z" fill="#D4D4D3"/>
<path transform="translate(413,358)" d="m0 0h2v75l-20 12-6 4h-3l1-75 9-6z" fill="#D4D4D3"/>
<path transform="translate(512,714)" d="m0 0h14l7 3-2 9-1 3-5-1h-8l-4 1-2 12h18v12l-1 1h-17v52h-15l-1-1v-51h-10l-1-1v-12h11v-8l4-11 7-6z" fill="#D4D4D3"/>
<path transform="translate(674,715)" d="m0 0h16l1 1 1 76h10l4-1 1 5v8l-5 2h-16l-6-3-4-4-2-8z" fill="#D4D4D3"/>
<path transform="translate(750,752)" d="m0 0 10 1 8 5 4 7v15l-5 8-6 4-3 1h-10l-6-3-6-7-2-7 1-11 5-8z" fill="#111110"/>
<path transform="translate(550,740)" d="m0 0h17v64l-1 2h-15l-1-1z" fill="#D4D4D3"/>
<path transform="translate(362,751)" d="m0 0 10 1 8 6 3 6v3h-36l1-6 5-6 5-3z" fill="#111110"/>
<path transform="translate(619,751)" d="m0 0 9 1 6 4 4 4 1 7h-35l-1-2 3-6 7-6z" fill="#111110"/>
<path transform="translate(384,524)" d="m0 0h2v27l-5-2-18-11 4-4z" fill="#111110"/>
<path transform="translate(557,711)" d="m0 0 6 1 5 5 1 5-3 6-3 2h-9l-5-5-1-6 3-5z" fill="#D4D4D3"/>
</svg>
