<svg xmlns="http://www.w3.org/2000/svg" viewBox="0 0 100 100">
  <!-- Hexfield "HF" monogram favicon — light mark on the dark brand square.
       Mirrors src/components/Logo.astro. -->
  <rect width="100" height="100" rx="22" fill="#0F1014"/>
  <g transform="translate(11 11) scale(0.78)" fill="#ECECEA">
    <path fill-rule="evenodd" d="M46 6 L94 6 L94 54 Q94 94 54 94 L6 94 L6 46 Q6 6 46 6 Z M46 17 L83 17 L83 54 Q83 83 54 83 L17 83 L17 46 Q17 17 46 17 Z"/>
    <path d="M27 28 H37 V74 H27 Z M47 28 H57 V74 H47 Z M47 28 H73 V38 H47 Z M27 45 H72 V55 H27 Z"/>
  </g>
</svg>
